<mxfile host="app.diagrams.net" modified="2024-01-25T19:55:47.219Z" agent="Mozilla/5.0 (Windows NT 10.0; Win64; x64) AppleWebKit/537.36 (KHTML, like Gecko) Chrome/120.0.0.0 Safari/537.36" etag="2v-Z6YEbSWLZ08Oo0sP9" version="23.0.1" type="github">
  <diagram name="Page-1" id="s19I6BRAhf0djLcdS-nG">
    <mxGraphModel dx="1050" dy="566" grid="1" gridSize="10" guides="1" tooltips="1" connect="1" arrows="1" fold="1" page="1" pageScale="1" pageWidth="850" pageHeight="1100" math="0" shadow="0">
      <root>
        <mxCell id="0" />
        <mxCell id="1" parent="0" />
        <mxCell id="NKgkl3NO5XFwCBdkXwBP-14" style="edgeStyle=orthogonalEdgeStyle;rounded=0;orthogonalLoop=1;jettySize=auto;html=1;entryX=0;entryY=0.5;entryDx=0;entryDy=0;" edge="1" parent="1" source="NKgkl3NO5XFwCBdkXwBP-1" target="NKgkl3NO5XFwCBdkXwBP-2">
          <mxGeometry relative="1" as="geometry" />
        </mxCell>
        <mxCell id="NKgkl3NO5XFwCBdkXwBP-15" style="edgeStyle=orthogonalEdgeStyle;rounded=0;orthogonalLoop=1;jettySize=auto;html=1;entryX=1;entryY=0.5;entryDx=0;entryDy=0;" edge="1" parent="1" source="NKgkl3NO5XFwCBdkXwBP-1" target="NKgkl3NO5XFwCBdkXwBP-8">
          <mxGeometry relative="1" as="geometry" />
        </mxCell>
        <mxCell id="NKgkl3NO5XFwCBdkXwBP-1" value="Actor" style="shape=umlActor;verticalLabelPosition=bottom;verticalAlign=top;html=1;outlineConnect=0;" vertex="1" parent="1">
          <mxGeometry x="210" y="260" width="30" height="60" as="geometry" />
        </mxCell>
        <mxCell id="NKgkl3NO5XFwCBdkXwBP-9" style="edgeStyle=orthogonalEdgeStyle;rounded=0;orthogonalLoop=1;jettySize=auto;html=1;entryX=0;entryY=0.5;entryDx=0;entryDy=0;" edge="1" parent="1" source="NKgkl3NO5XFwCBdkXwBP-2" target="NKgkl3NO5XFwCBdkXwBP-3">
          <mxGeometry relative="1" as="geometry" />
        </mxCell>
        <mxCell id="NKgkl3NO5XFwCBdkXwBP-10" style="edgeStyle=orthogonalEdgeStyle;rounded=0;orthogonalLoop=1;jettySize=auto;html=1;entryX=0;entryY=0.5;entryDx=0;entryDy=0;" edge="1" parent="1" source="NKgkl3NO5XFwCBdkXwBP-2" target="NKgkl3NO5XFwCBdkXwBP-5">
          <mxGeometry relative="1" as="geometry" />
        </mxCell>
        <mxCell id="NKgkl3NO5XFwCBdkXwBP-11" style="edgeStyle=orthogonalEdgeStyle;rounded=0;orthogonalLoop=1;jettySize=auto;html=1;entryX=0;entryY=0.5;entryDx=0;entryDy=0;" edge="1" parent="1" source="NKgkl3NO5XFwCBdkXwBP-2" target="NKgkl3NO5XFwCBdkXwBP-6">
          <mxGeometry relative="1" as="geometry" />
        </mxCell>
        <mxCell id="NKgkl3NO5XFwCBdkXwBP-12" style="edgeStyle=orthogonalEdgeStyle;rounded=0;orthogonalLoop=1;jettySize=auto;html=1;entryX=0;entryY=0.5;entryDx=0;entryDy=0;" edge="1" parent="1" source="NKgkl3NO5XFwCBdkXwBP-2" target="NKgkl3NO5XFwCBdkXwBP-7">
          <mxGeometry relative="1" as="geometry" />
        </mxCell>
        <mxCell id="NKgkl3NO5XFwCBdkXwBP-13" style="edgeStyle=orthogonalEdgeStyle;rounded=0;orthogonalLoop=1;jettySize=auto;html=1;entryX=0.5;entryY=1;entryDx=0;entryDy=0;" edge="1" parent="1" source="NKgkl3NO5XFwCBdkXwBP-2" target="NKgkl3NO5XFwCBdkXwBP-4">
          <mxGeometry relative="1" as="geometry" />
        </mxCell>
        <mxCell id="NKgkl3NO5XFwCBdkXwBP-2" value="&lt;font style=&quot;font-size: 18px;&quot;&gt;Create New Node&lt;/font&gt;" style="ellipse;whiteSpace=wrap;html=1;" vertex="1" parent="1">
          <mxGeometry x="305" y="260" width="120" height="80" as="geometry" />
        </mxCell>
        <mxCell id="NKgkl3NO5XFwCBdkXwBP-3" value="Select Node Color" style="ellipse;whiteSpace=wrap;html=1;" vertex="1" parent="1">
          <mxGeometry x="490" y="110" width="120" height="80" as="geometry" />
        </mxCell>
        <mxCell id="NKgkl3NO5XFwCBdkXwBP-4" value="Create Node from Parent" style="ellipse;whiteSpace=wrap;html=1;" vertex="1" parent="1">
          <mxGeometry x="260" y="140" width="120" height="80" as="geometry" />
        </mxCell>
        <mxCell id="NKgkl3NO5XFwCBdkXwBP-5" value="Select Node Shape" style="ellipse;whiteSpace=wrap;html=1;" vertex="1" parent="1">
          <mxGeometry x="490" y="210" width="120" height="80" as="geometry" />
        </mxCell>
        <mxCell id="NKgkl3NO5XFwCBdkXwBP-6" value="Enter Node Text" style="ellipse;whiteSpace=wrap;html=1;" vertex="1" parent="1">
          <mxGeometry x="490" y="310" width="120" height="80" as="geometry" />
        </mxCell>
        <mxCell id="NKgkl3NO5XFwCBdkXwBP-7" value="Add Node Image" style="ellipse;whiteSpace=wrap;html=1;" vertex="1" parent="1">
          <mxGeometry x="490" y="410" width="120" height="80" as="geometry" />
        </mxCell>
        <mxCell id="NKgkl3NO5XFwCBdkXwBP-8" value="Delete Existing Node" style="ellipse;whiteSpace=wrap;html=1;" vertex="1" parent="1">
          <mxGeometry x="20" y="260" width="120" height="80" as="geometry" />
        </mxCell>
        <mxCell id="NKgkl3NO5XFwCBdkXwBP-17" style="edgeStyle=orthogonalEdgeStyle;rounded=0;orthogonalLoop=1;jettySize=auto;html=1;entryX=1;entryY=0.5;entryDx=0;entryDy=0;" edge="1" parent="1" source="NKgkl3NO5XFwCBdkXwBP-16" target="NKgkl3NO5XFwCBdkXwBP-3">
          <mxGeometry relative="1" as="geometry" />
        </mxCell>
        <mxCell id="NKgkl3NO5XFwCBdkXwBP-18" style="edgeStyle=orthogonalEdgeStyle;rounded=0;orthogonalLoop=1;jettySize=auto;html=1;entryX=1;entryY=0.5;entryDx=0;entryDy=0;" edge="1" parent="1" source="NKgkl3NO5XFwCBdkXwBP-16" target="NKgkl3NO5XFwCBdkXwBP-5">
          <mxGeometry relative="1" as="geometry" />
        </mxCell>
        <mxCell id="NKgkl3NO5XFwCBdkXwBP-19" style="edgeStyle=orthogonalEdgeStyle;rounded=0;orthogonalLoop=1;jettySize=auto;html=1;entryX=1;entryY=0.5;entryDx=0;entryDy=0;" edge="1" parent="1" source="NKgkl3NO5XFwCBdkXwBP-16" target="NKgkl3NO5XFwCBdkXwBP-6">
          <mxGeometry relative="1" as="geometry" />
        </mxCell>
        <mxCell id="NKgkl3NO5XFwCBdkXwBP-22" style="edgeStyle=orthogonalEdgeStyle;rounded=0;orthogonalLoop=1;jettySize=auto;html=1;entryX=0.5;entryY=1;entryDx=0;entryDy=0;" edge="1" parent="1" source="NKgkl3NO5XFwCBdkXwBP-16" target="NKgkl3NO5XFwCBdkXwBP-21">
          <mxGeometry relative="1" as="geometry" />
        </mxCell>
        <mxCell id="NKgkl3NO5XFwCBdkXwBP-16" value="&lt;font style=&quot;font-size: 19px;&quot;&gt;Edit Node&lt;/font&gt;" style="ellipse;whiteSpace=wrap;html=1;" vertex="1" parent="1">
          <mxGeometry x="670" y="250" width="120" height="80" as="geometry" />
        </mxCell>
        <mxCell id="NKgkl3NO5XFwCBdkXwBP-20" style="edgeStyle=orthogonalEdgeStyle;rounded=0;orthogonalLoop=1;jettySize=auto;html=1;entryX=1;entryY=0.42;entryDx=0;entryDy=0;entryPerimeter=0;" edge="1" parent="1" source="NKgkl3NO5XFwCBdkXwBP-16" target="NKgkl3NO5XFwCBdkXwBP-7">
          <mxGeometry relative="1" as="geometry" />
        </mxCell>
        <mxCell id="NKgkl3NO5XFwCBdkXwBP-21" value="Add New Child" style="ellipse;whiteSpace=wrap;html=1;" vertex="1" parent="1">
          <mxGeometry x="670" y="100" width="120" height="80" as="geometry" />
        </mxCell>
        <mxCell id="NKgkl3NO5XFwCBdkXwBP-24" value="" style="curved=1;endArrow=classic;html=1;rounded=0;entryX=0.5;entryY=1;entryDx=0;entryDy=0;" edge="1" parent="1" source="NKgkl3NO5XFwCBdkXwBP-1" target="NKgkl3NO5XFwCBdkXwBP-16">
          <mxGeometry width="50" height="50" relative="1" as="geometry">
            <mxPoint x="400" y="400" as="sourcePoint" />
            <mxPoint x="450" y="350" as="targetPoint" />
            <Array as="points">
              <mxPoint x="450" y="400" />
              <mxPoint x="540" y="650" />
            </Array>
          </mxGeometry>
        </mxCell>
      </root>
    </mxGraphModel>
  </diagram>
</mxfile>
